<svg width="36" height="34" viewBox="0 0 36 34" fill="none" xmlns="http://www.w3.org/2000/svg">
<g clip-path="url(#clip0_42_54)">
<path d="M25.6797 0.908936H9.78761C4.39073 0.908936 0 4.96057 0 9.94042V24.6045C0 29.5846 4.39073 33.636 9.78761 33.636H25.6797C31.077 33.636 35.4678 29.5844 35.4678 24.6045V9.94042C35.468 4.96057 31.077 0.908936 25.6797 0.908936ZM32.3211 24.6045C32.3211 27.9835 29.3419 30.7323 25.6799 30.7323H9.78761C6.12591 30.7325 3.14687 27.9835 3.14687 24.6045V9.94042C3.14687 6.56167 6.12591 3.81264 9.78761 3.81264H25.6797C29.3416 3.81264 32.3209 6.56167 32.3209 9.94042V24.6045H32.3211Z" fill="black"/>
<path d="M17.7339 8.84009C12.6945 8.84009 8.59473 12.623 8.59473 17.273C8.59473 21.9228 12.6945 25.7056 17.7339 25.7056C22.7733 25.7056 26.873 21.9228 26.873 17.273C26.873 12.623 22.7733 8.84009 17.7339 8.84009ZM17.7339 22.8017C14.4299 22.8017 11.7416 20.3215 11.7416 17.2728C11.7416 14.2239 14.4297 11.7436 17.7339 11.7436C21.0381 11.7436 23.7261 14.2239 23.7261 17.2728C23.7261 20.3215 21.0379 22.8017 17.7339 22.8017Z" fill="black"/>
<path d="M27.2563 6.37793C26.65 6.37793 26.0544 6.60442 25.6262 7.00126C25.196 7.39616 24.9486 7.94593 24.9486 8.50731C24.9486 9.06695 25.1962 9.61653 25.6262 10.0134C26.0542 10.4083 26.65 10.6367 27.2563 10.6367C27.8647 10.6367 28.4584 10.4083 28.8885 10.0134C29.3186 9.61653 29.564 9.06676 29.564 8.50731C29.564 7.94593 29.3186 7.39616 28.8885 7.00126C28.4605 6.60442 27.8647 6.37793 27.2563 6.37793Z" fill="black"/>
</g>
<defs>
<clipPath id="clip0_42_54">
<rect width="35.468" height="32.7273" fill="white" transform="translate(0 0.908936)"/>
</clipPath>
</defs>
</svg>
