<svg width="36" height="34" viewBox="0 0 36 34" fill="none" xmlns="http://www.w3.org/2000/svg">
<g clip-path="url(#clip0_42_59)">
<path d="M31.1381 4.54663H4.33718C1.94476 4.54663 0 6.34111 0 8.54866V25.4506C0 27.6582 1.94476 29.4527 4.33718 29.4527H31.1308C33.5232 29.4527 35.468 27.6582 35.468 25.4506V8.55543C35.4753 6.34788 33.5306 4.54663 31.1381 4.54663ZM33.4939 25.4506C33.4939 26.6492 32.4371 27.6243 31.1381 27.6243H4.33718C3.03823 27.6243 1.98145 26.6492 1.98145 25.4506V8.55543C1.98145 7.35686 3.03823 6.38174 4.33718 6.38174H31.1308C32.4298 6.38174 33.4865 7.35686 33.4865 8.55543V25.4506H33.4939Z" fill="black"/>
<path d="M22.3684 16.7898L31.0427 9.61183C31.4464 9.27325 31.483 8.69766 31.1161 8.31845C30.7492 7.94601 30.1254 7.91215 29.7144 8.25073L17.7523 18.1576L15.4186 16.2345C15.4113 16.2277 15.4039 16.2209 15.4039 16.2142C15.3526 16.1668 15.3012 16.1261 15.2425 16.0855L5.7462 8.24396C5.33523 7.90538 4.71144 7.93923 4.3445 8.31845C3.97757 8.69766 4.01426 9.27325 4.42523 9.61183L13.2023 16.8507L4.46192 24.4011C4.06563 24.7464 4.04362 25.322 4.41789 25.6944C4.61603 25.884 4.88023 25.9856 5.14442 25.9856C5.3866 25.9856 5.62878 25.9044 5.81958 25.7418L14.6921 18.0831L17.0992 20.0672C17.29 20.223 17.5248 20.2975 17.7597 20.2975C17.9945 20.2975 18.2367 20.2162 18.4201 20.0604L20.8933 18.0154L29.7144 25.7486C29.9052 25.9179 30.1547 25.9992 30.3969 25.9992C30.6611 25.9992 30.918 25.9044 31.1161 25.7148C31.4904 25.3491 31.4757 24.7667 31.0794 24.4214L22.3684 16.7898Z" fill="black"/>
</g>
<defs>
<clipPath id="clip0_42_59">
<rect width="35.468" height="32.7273" fill="white" transform="translate(0 0.63623)"/>
</clipPath>
</defs>
</svg>
